<mxfile host="Electron" modified="2024-04-11T10:33:27.886Z" agent="Mozilla/5.0 (X11; Linux x86_64) AppleWebKit/537.36 (KHTML, like Gecko) draw.io/24.1.0 Chrome/120.0.6099.291 Electron/28.3.0 Safari/537.36" etag="wT0mic611bAzSTesvL_5" version="24.1.0" type="device">
  <diagram name="Page-1" id="bklAiKtcn_4MDuEUO1ZA">
    <mxGraphModel dx="1434" dy="872" grid="1" gridSize="10" guides="1" tooltips="1" connect="1" arrows="1" fold="1" page="1" pageScale="1" pageWidth="1600" pageHeight="900" math="0" shadow="0">
      <root>
        <mxCell id="0" />
        <mxCell id="1" parent="0" />
        <mxCell id="Ck7d__-fexrZB1Ee6DTB-9" style="rounded=0;orthogonalLoop=1;jettySize=auto;html=1;exitX=1;exitY=0.5;exitDx=0;exitDy=0;entryX=0;entryY=0.5;entryDx=0;entryDy=0;endArrow=classic;endFill=1;" parent="1" source="Ck7d__-fexrZB1Ee6DTB-1" target="Ck7d__-fexrZB1Ee6DTB-6" edge="1">
          <mxGeometry relative="1" as="geometry" />
        </mxCell>
        <mxCell id="HPnhJ7mw4gx3FBBXupII-4" value="" style="edgeStyle=orthogonalEdgeStyle;rounded=0;orthogonalLoop=1;jettySize=auto;html=1;" parent="1" source="Ck7d__-fexrZB1Ee6DTB-1" target="HPnhJ7mw4gx3FBBXupII-3" edge="1">
          <mxGeometry relative="1" as="geometry" />
        </mxCell>
        <mxCell id="HPnhJ7mw4gx3FBBXupII-8" value="" style="rounded=0;orthogonalLoop=1;jettySize=auto;html=1;" parent="1" source="Ck7d__-fexrZB1Ee6DTB-1" target="HPnhJ7mw4gx3FBBXupII-7" edge="1">
          <mxGeometry relative="1" as="geometry" />
        </mxCell>
        <mxCell id="HPnhJ7mw4gx3FBBXupII-10" value="" style="rounded=0;orthogonalLoop=1;jettySize=auto;html=1;" parent="1" source="Ck7d__-fexrZB1Ee6DTB-1" target="HPnhJ7mw4gx3FBBXupII-9" edge="1">
          <mxGeometry relative="1" as="geometry" />
        </mxCell>
        <mxCell id="Ck7d__-fexrZB1Ee6DTB-1" value="medewerker" style="rounded=0;whiteSpace=wrap;html=1;" parent="1" vertex="1">
          <mxGeometry x="490" y="210" width="120" height="60" as="geometry" />
        </mxCell>
        <mxCell id="Ck7d__-fexrZB1Ee6DTB-8" style="rounded=0;orthogonalLoop=1;jettySize=auto;html=1;exitX=1;exitY=0;exitDx=0;exitDy=0;entryX=0;entryY=1;entryDx=0;entryDy=0;endArrow=none;endFill=0;" parent="1" source="Ck7d__-fexrZB1Ee6DTB-2" target="Ck7d__-fexrZB1Ee6DTB-7" edge="1">
          <mxGeometry relative="1" as="geometry" />
        </mxCell>
        <mxCell id="Ck7d__-fexrZB1Ee6DTB-21" style="edgeStyle=orthogonalEdgeStyle;rounded=0;orthogonalLoop=1;jettySize=auto;html=1;exitX=0.5;exitY=1;exitDx=0;exitDy=0;entryX=0.5;entryY=0;entryDx=0;entryDy=0;endArrow=classic;endFill=1;" parent="1" source="Ck7d__-fexrZB1Ee6DTB-2" target="Ck7d__-fexrZB1Ee6DTB-5" edge="1">
          <mxGeometry relative="1" as="geometry" />
        </mxCell>
        <mxCell id="Ck7d__-fexrZB1Ee6DTB-50" value="" style="rounded=0;orthogonalLoop=1;jettySize=auto;html=1;" parent="1" source="Ck7d__-fexrZB1Ee6DTB-2" target="Ck7d__-fexrZB1Ee6DTB-49" edge="1">
          <mxGeometry relative="1" as="geometry" />
        </mxCell>
        <mxCell id="Ck7d__-fexrZB1Ee6DTB-53" style="rounded=0;orthogonalLoop=1;jettySize=auto;html=1;exitX=0.25;exitY=0;exitDx=0;exitDy=0;entryX=0.5;entryY=1;entryDx=0;entryDy=0;" parent="1" source="Ck7d__-fexrZB1Ee6DTB-2" target="Ck7d__-fexrZB1Ee6DTB-51" edge="1">
          <mxGeometry relative="1" as="geometry" />
        </mxCell>
        <mxCell id="Ck7d__-fexrZB1Ee6DTB-54" style="rounded=0;orthogonalLoop=1;jettySize=auto;html=1;exitX=0;exitY=0;exitDx=0;exitDy=0;" parent="1" source="Ck7d__-fexrZB1Ee6DTB-2" target="Ck7d__-fexrZB1Ee6DTB-52" edge="1">
          <mxGeometry relative="1" as="geometry" />
        </mxCell>
        <mxCell id="Ck7d__-fexrZB1Ee6DTB-56" value="" style="rounded=0;orthogonalLoop=1;jettySize=auto;html=1;" parent="1" source="Ck7d__-fexrZB1Ee6DTB-2" target="Ck7d__-fexrZB1Ee6DTB-55" edge="1">
          <mxGeometry relative="1" as="geometry" />
        </mxCell>
        <mxCell id="Ck7d__-fexrZB1Ee6DTB-65" style="rounded=0;orthogonalLoop=1;jettySize=auto;html=1;exitX=1;exitY=0.25;exitDx=0;exitDy=0;entryX=0;entryY=0.5;entryDx=0;entryDy=0;" parent="1" source="Ck7d__-fexrZB1Ee6DTB-2" target="Ck7d__-fexrZB1Ee6DTB-64" edge="1">
          <mxGeometry relative="1" as="geometry" />
        </mxCell>
        <mxCell id="jRtd0sI45qNkv0T4xofk-15" style="edgeStyle=orthogonalEdgeStyle;rounded=0;orthogonalLoop=1;jettySize=auto;html=1;exitX=0.75;exitY=1;exitDx=0;exitDy=0;entryX=0;entryY=0;entryDx=0;entryDy=0;" edge="1" parent="1" source="Ck7d__-fexrZB1Ee6DTB-2" target="jRtd0sI45qNkv0T4xofk-13">
          <mxGeometry relative="1" as="geometry" />
        </mxCell>
        <mxCell id="Ck7d__-fexrZB1Ee6DTB-2" value="gebruiker" style="rounded=0;whiteSpace=wrap;html=1;" parent="1" vertex="1">
          <mxGeometry x="920" y="210" width="120" height="60" as="geometry" />
        </mxCell>
        <mxCell id="Ck7d__-fexrZB1Ee6DTB-22" style="edgeStyle=orthogonalEdgeStyle;rounded=0;orthogonalLoop=1;jettySize=auto;html=1;exitX=0.5;exitY=1;exitDx=0;exitDy=0;entryX=0.5;entryY=0;entryDx=0;entryDy=0;endArrow=classic;endFill=1;" parent="1" source="Ck7d__-fexrZB1Ee6DTB-5" target="Ck7d__-fexrZB1Ee6DTB-20" edge="1">
          <mxGeometry relative="1" as="geometry" />
        </mxCell>
        <mxCell id="Ck7d__-fexrZB1Ee6DTB-5" value="plaatst" style="rhombus;whiteSpace=wrap;html=1;" parent="1" vertex="1">
          <mxGeometry x="920" y="340" width="80" height="80" as="geometry" />
        </mxCell>
        <mxCell id="Ck7d__-fexrZB1Ee6DTB-10" style="rounded=0;orthogonalLoop=1;jettySize=auto;html=1;exitX=1;exitY=0.5;exitDx=0;exitDy=0;entryX=0;entryY=0.5;entryDx=0;entryDy=0;endArrow=classic;endFill=1;" parent="1" source="Ck7d__-fexrZB1Ee6DTB-6" target="Ck7d__-fexrZB1Ee6DTB-2" edge="1">
          <mxGeometry relative="1" as="geometry" />
        </mxCell>
        <mxCell id="Ck7d__-fexrZB1Ee6DTB-6" value="modereert" style="rhombus;whiteSpace=wrap;html=1;" parent="1" vertex="1">
          <mxGeometry x="730" y="200" width="80" height="80" as="geometry" />
        </mxCell>
        <mxCell id="Ck7d__-fexrZB1Ee6DTB-7" value="account" style="ellipse;whiteSpace=wrap;html=1;" parent="1" vertex="1">
          <mxGeometry x="1060" y="120" width="120" height="80" as="geometry" />
        </mxCell>
        <mxCell id="Ck7d__-fexrZB1Ee6DTB-12" value="n" style="text;html=1;align=center;verticalAlign=middle;resizable=0;points=[];autosize=1;strokeColor=none;fillColor=none;" parent="1" vertex="1">
          <mxGeometry x="655" y="198" width="30" height="30" as="geometry" />
        </mxCell>
        <mxCell id="Ck7d__-fexrZB1Ee6DTB-13" value="n" style="text;html=1;align=center;verticalAlign=middle;resizable=0;points=[];autosize=1;strokeColor=none;fillColor=none;" parent="1" vertex="1">
          <mxGeometry x="845" y="198" width="30" height="30" as="geometry" />
        </mxCell>
        <mxCell id="Ck7d__-fexrZB1Ee6DTB-44" value="" style="rounded=0;orthogonalLoop=1;jettySize=auto;html=1;" parent="1" source="Ck7d__-fexrZB1Ee6DTB-20" target="Ck7d__-fexrZB1Ee6DTB-43" edge="1">
          <mxGeometry relative="1" as="geometry" />
        </mxCell>
        <mxCell id="Ck7d__-fexrZB1Ee6DTB-46" value="" style="edgeStyle=orthogonalEdgeStyle;rounded=0;orthogonalLoop=1;jettySize=auto;html=1;" parent="1" source="Ck7d__-fexrZB1Ee6DTB-20" target="Ck7d__-fexrZB1Ee6DTB-45" edge="1">
          <mxGeometry relative="1" as="geometry" />
        </mxCell>
        <mxCell id="Ck7d__-fexrZB1Ee6DTB-20" value="bericht" style="rounded=0;whiteSpace=wrap;html=1;" parent="1" vertex="1">
          <mxGeometry x="890" y="540" width="120" height="60" as="geometry" />
        </mxCell>
        <mxCell id="Ck7d__-fexrZB1Ee6DTB-23" value="n" style="text;html=1;align=center;verticalAlign=middle;resizable=0;points=[];autosize=1;strokeColor=none;fillColor=none;" parent="1" vertex="1">
          <mxGeometry x="930" y="288" width="30" height="30" as="geometry" />
        </mxCell>
        <mxCell id="Ck7d__-fexrZB1Ee6DTB-24" value="n" style="text;html=1;align=center;verticalAlign=middle;resizable=0;points=[];autosize=1;strokeColor=none;fillColor=none;" parent="1" vertex="1">
          <mxGeometry x="930" y="450" width="30" height="30" as="geometry" />
        </mxCell>
        <mxCell id="Ck7d__-fexrZB1Ee6DTB-38" style="edgeStyle=orthogonalEdgeStyle;rounded=0;orthogonalLoop=1;jettySize=auto;html=1;exitX=1;exitY=1;exitDx=0;exitDy=0;entryX=0;entryY=0.5;entryDx=0;entryDy=0;" parent="1" source="Ck7d__-fexrZB1Ee6DTB-36" target="Ck7d__-fexrZB1Ee6DTB-20" edge="1">
          <mxGeometry relative="1" as="geometry" />
        </mxCell>
        <mxCell id="jRtd0sI45qNkv0T4xofk-1" style="edgeStyle=orthogonalEdgeStyle;rounded=0;orthogonalLoop=1;jettySize=auto;html=1;exitX=1;exitY=0;exitDx=0;exitDy=0;entryX=0;entryY=1;entryDx=0;entryDy=0;" edge="1" parent="1" source="Ck7d__-fexrZB1Ee6DTB-36" target="Ck7d__-fexrZB1Ee6DTB-2">
          <mxGeometry relative="1" as="geometry">
            <Array as="points">
              <mxPoint x="730" y="330" />
              <mxPoint x="920" y="330" />
            </Array>
          </mxGeometry>
        </mxCell>
        <mxCell id="Ck7d__-fexrZB1Ee6DTB-36" value="verwijderd" style="rhombus;whiteSpace=wrap;html=1;" parent="1" vertex="1">
          <mxGeometry x="670" y="380" width="80" height="80" as="geometry" />
        </mxCell>
        <mxCell id="Ck7d__-fexrZB1Ee6DTB-37" style="edgeStyle=orthogonalEdgeStyle;rounded=0;orthogonalLoop=1;jettySize=auto;html=1;exitX=0.5;exitY=1;exitDx=0;exitDy=0;entryX=0.325;entryY=0.15;entryDx=0;entryDy=0;entryPerimeter=0;" parent="1" source="Ck7d__-fexrZB1Ee6DTB-1" target="Ck7d__-fexrZB1Ee6DTB-36" edge="1">
          <mxGeometry relative="1" as="geometry" />
        </mxCell>
        <mxCell id="Ck7d__-fexrZB1Ee6DTB-39" value="n" style="text;html=1;align=center;verticalAlign=middle;resizable=0;points=[];autosize=1;strokeColor=none;fillColor=none;" parent="1" vertex="1">
          <mxGeometry x="590" y="300" width="30" height="30" as="geometry" />
        </mxCell>
        <mxCell id="Ck7d__-fexrZB1Ee6DTB-40" value="n" style="text;html=1;align=center;verticalAlign=middle;resizable=0;points=[];autosize=1;strokeColor=none;fillColor=none;" parent="1" vertex="1">
          <mxGeometry x="835" y="468" width="30" height="30" as="geometry" />
        </mxCell>
        <mxCell id="Ck7d__-fexrZB1Ee6DTB-43" value="bericht" style="ellipse;whiteSpace=wrap;html=1;rounded=0;" parent="1" vertex="1">
          <mxGeometry x="800" y="610" width="80" height="80" as="geometry" />
        </mxCell>
        <mxCell id="Ck7d__-fexrZB1Ee6DTB-45" value="id" style="ellipse;whiteSpace=wrap;html=1;rounded=0;" parent="1" vertex="1">
          <mxGeometry x="870" y="660" width="80" height="80" as="geometry" />
        </mxCell>
        <mxCell id="Ck7d__-fexrZB1Ee6DTB-49" value="email" style="ellipse;whiteSpace=wrap;html=1;rounded=0;" parent="1" vertex="1">
          <mxGeometry x="980" y="80" width="80" height="80" as="geometry" />
        </mxCell>
        <mxCell id="Ck7d__-fexrZB1Ee6DTB-51" value="wachtwoord" style="ellipse;whiteSpace=wrap;html=1;rounded=0;" parent="1" vertex="1">
          <mxGeometry x="890" y="70" width="80" height="80" as="geometry" />
        </mxCell>
        <mxCell id="Ck7d__-fexrZB1Ee6DTB-52" value="gebruikernaam" style="ellipse;whiteSpace=wrap;html=1;rounded=0;" parent="1" vertex="1">
          <mxGeometry x="810" y="100" width="80" height="80" as="geometry" />
        </mxCell>
        <mxCell id="Ck7d__-fexrZB1Ee6DTB-55" value="displaynaam" style="ellipse;whiteSpace=wrap;html=1;rounded=0;" parent="1" vertex="1">
          <mxGeometry x="1095" y="210" width="80" height="80" as="geometry" />
        </mxCell>
        <mxCell id="Ck7d__-fexrZB1Ee6DTB-64" value="id" style="ellipse;whiteSpace=wrap;html=1;aspect=fixed;" parent="1" vertex="1">
          <mxGeometry x="1180" y="150" width="80" height="80" as="geometry" />
        </mxCell>
        <mxCell id="HPnhJ7mw4gx3FBBXupII-3" value="userid" style="ellipse;whiteSpace=wrap;html=1;rounded=0;" parent="1" vertex="1">
          <mxGeometry x="510" y="80" width="80" height="80" as="geometry" />
        </mxCell>
        <mxCell id="HPnhJ7mw4gx3FBBXupII-7" value="moderator" style="ellipse;whiteSpace=wrap;html=1;rounded=0;" parent="1" vertex="1">
          <mxGeometry x="420" y="100" width="80" height="80" as="geometry" />
        </mxCell>
        <mxCell id="HPnhJ7mw4gx3FBBXupII-9" value="admin" style="ellipse;whiteSpace=wrap;html=1;rounded=0;" parent="1" vertex="1">
          <mxGeometry x="370" y="190" width="80" height="80" as="geometry" />
        </mxCell>
        <mxCell id="jRtd0sI45qNkv0T4xofk-2" value="n" style="text;html=1;align=center;verticalAlign=middle;resizable=0;points=[];autosize=1;strokeColor=none;fillColor=none;" vertex="1" parent="1">
          <mxGeometry x="800" y="300" width="30" height="30" as="geometry" />
        </mxCell>
        <mxCell id="jRtd0sI45qNkv0T4xofk-10" style="edgeStyle=orthogonalEdgeStyle;rounded=0;orthogonalLoop=1;jettySize=auto;html=1;exitX=1;exitY=0;exitDx=0;exitDy=0;entryX=0;entryY=1;entryDx=0;entryDy=0;" edge="1" parent="1" source="jRtd0sI45qNkv0T4xofk-6" target="jRtd0sI45qNkv0T4xofk-7">
          <mxGeometry relative="1" as="geometry" />
        </mxCell>
        <mxCell id="jRtd0sI45qNkv0T4xofk-11" style="edgeStyle=orthogonalEdgeStyle;rounded=0;orthogonalLoop=1;jettySize=auto;html=1;exitX=1;exitY=0.25;exitDx=0;exitDy=0;entryX=0;entryY=0.5;entryDx=0;entryDy=0;" edge="1" parent="1" source="jRtd0sI45qNkv0T4xofk-6" target="jRtd0sI45qNkv0T4xofk-8">
          <mxGeometry relative="1" as="geometry" />
        </mxCell>
        <mxCell id="jRtd0sI45qNkv0T4xofk-12" style="edgeStyle=orthogonalEdgeStyle;rounded=0;orthogonalLoop=1;jettySize=auto;html=1;exitX=1;exitY=1;exitDx=0;exitDy=0;entryX=0;entryY=0;entryDx=0;entryDy=0;" edge="1" parent="1" source="jRtd0sI45qNkv0T4xofk-6" target="jRtd0sI45qNkv0T4xofk-9">
          <mxGeometry relative="1" as="geometry">
            <Array as="points">
              <mxPoint x="1270" y="500" />
              <mxPoint x="1292" y="500" />
            </Array>
          </mxGeometry>
        </mxCell>
        <mxCell id="jRtd0sI45qNkv0T4xofk-17" style="edgeStyle=orthogonalEdgeStyle;rounded=0;orthogonalLoop=1;jettySize=auto;html=1;exitX=0;exitY=1;exitDx=0;exitDy=0;" edge="1" parent="1" source="jRtd0sI45qNkv0T4xofk-6" target="jRtd0sI45qNkv0T4xofk-14">
          <mxGeometry relative="1" as="geometry">
            <Array as="points">
              <mxPoint x="1150" y="500" />
              <mxPoint x="1100" y="500" />
            </Array>
          </mxGeometry>
        </mxCell>
        <mxCell id="jRtd0sI45qNkv0T4xofk-6" value="likes" style="rounded=0;whiteSpace=wrap;html=1;" vertex="1" parent="1">
          <mxGeometry x="1150" y="420" width="120" height="60" as="geometry" />
        </mxCell>
        <mxCell id="jRtd0sI45qNkv0T4xofk-7" value="user-id" style="ellipse;whiteSpace=wrap;html=1;aspect=fixed;" vertex="1" parent="1">
          <mxGeometry x="1290" y="300" width="80" height="80" as="geometry" />
        </mxCell>
        <mxCell id="jRtd0sI45qNkv0T4xofk-8" value="message-id" style="ellipse;whiteSpace=wrap;html=1;aspect=fixed;" vertex="1" parent="1">
          <mxGeometry x="1310" y="400" width="80" height="80" as="geometry" />
        </mxCell>
        <mxCell id="jRtd0sI45qNkv0T4xofk-9" value="userid" style="ellipse;whiteSpace=wrap;html=1;aspect=fixed;" vertex="1" parent="1">
          <mxGeometry x="1290" y="500" width="80" height="80" as="geometry" />
        </mxCell>
        <mxCell id="jRtd0sI45qNkv0T4xofk-16" style="edgeStyle=orthogonalEdgeStyle;rounded=0;orthogonalLoop=1;jettySize=auto;html=1;exitX=1;exitY=1;exitDx=0;exitDy=0;entryX=0;entryY=0;entryDx=0;entryDy=0;" edge="1" parent="1" source="jRtd0sI45qNkv0T4xofk-13" target="jRtd0sI45qNkv0T4xofk-6">
          <mxGeometry relative="1" as="geometry" />
        </mxCell>
        <mxCell id="jRtd0sI45qNkv0T4xofk-13" value="liked" style="rhombus;whiteSpace=wrap;html=1;" vertex="1" parent="1">
          <mxGeometry x="1050" y="310" width="80" height="80" as="geometry" />
        </mxCell>
        <mxCell id="jRtd0sI45qNkv0T4xofk-18" style="edgeStyle=orthogonalEdgeStyle;rounded=0;orthogonalLoop=1;jettySize=auto;html=1;exitX=0;exitY=0.5;exitDx=0;exitDy=0;entryX=1;entryY=0.25;entryDx=0;entryDy=0;" edge="1" parent="1" source="jRtd0sI45qNkv0T4xofk-14" target="Ck7d__-fexrZB1Ee6DTB-20">
          <mxGeometry relative="1" as="geometry" />
        </mxCell>
        <mxCell id="jRtd0sI45qNkv0T4xofk-14" value="heeft" style="rhombus;whiteSpace=wrap;html=1;" vertex="1" parent="1">
          <mxGeometry x="1060" y="510" width="80" height="80" as="geometry" />
        </mxCell>
        <mxCell id="jRtd0sI45qNkv0T4xofk-19" value="n" style="text;html=1;align=center;verticalAlign=middle;resizable=0;points=[];autosize=1;strokeColor=none;fillColor=none;" vertex="1" parent="1">
          <mxGeometry x="1040" y="260" width="30" height="30" as="geometry" />
        </mxCell>
        <mxCell id="jRtd0sI45qNkv0T4xofk-20" value="n" style="text;html=1;align=center;verticalAlign=middle;resizable=0;points=[];autosize=1;strokeColor=none;fillColor=none;" vertex="1" parent="1">
          <mxGeometry x="1150" y="365" width="30" height="30" as="geometry" />
        </mxCell>
        <mxCell id="jRtd0sI45qNkv0T4xofk-21" value="n" style="text;html=1;align=center;verticalAlign=middle;resizable=0;points=[];autosize=1;strokeColor=none;fillColor=none;" vertex="1" parent="1">
          <mxGeometry x="1105" y="460" width="30" height="30" as="geometry" />
        </mxCell>
        <mxCell id="jRtd0sI45qNkv0T4xofk-22" value="n" style="text;html=1;align=center;verticalAlign=middle;resizable=0;points=[];autosize=1;strokeColor=none;fillColor=none;" vertex="1" parent="1">
          <mxGeometry x="1020" y="520" width="30" height="30" as="geometry" />
        </mxCell>
      </root>
    </mxGraphModel>
  </diagram>
</mxfile>
